
        <svg xmlns="http://www.w3.org/2000/svg" 
            width="1024" 
            height="1024"
            viewBox="0 0 1024 1024">
          <path d="M827.308 139.019 C 824.000 140.337,822.380 143.724,821.096 152.000 C 816.284 183.020,804.575 194.979,774.669 199.417 C 762.410 201.237,760.000 202.647,760.000 208.000 C 760.000 213.433,762.201 214.635,776.587 217.056 C 805.137 221.862,816.666 233.903,821.454 263.912 C 823.178 274.720,825.284 278.000,830.500 278.000 C 835.817 278.000,837.570 274.981,839.920 261.779 C 843.037 244.266,846.770 236.054,854.988 228.630 C 862.272 222.049,870.998 219.056,893.254 215.507 C 900.371 214.372,903.063 208.495,898.750 203.512 C 896.830 201.294,895.032 200.696,886.500 199.436 C 855.249 194.819,845.197 185.403,839.304 155.226 C 837.792 147.480,836.170 141.856,835.160 140.855 C 832.935 138.649,829.973 137.957,827.308 139.019 M496.484 146.811 C 474.386 159.674,370.676 220.365,343.500 236.339 C 314.328 253.485,282.308 272.263,243.574 294.940 C 201.168 319.767,201.695 319.347,200.515 329.300 C 200.176 332.160,200.034 406.950,200.199 495.500 C 200.498 655.664,200.511 656.518,202.547 660.000 C 204.997 664.188,210.035 667.384,273.500 705.015 C 298.800 720.017,339.525 744.317,364.000 759.015 C 493.726 836.922,568.659 881.346,572.624 882.697 C 575.237 883.587,578.420 883.956,580.355 883.593 C 582.164 883.254,592.387 877.660,603.072 871.162 C 648.550 843.508,711.946 804.865,730.500 793.489 C 757.042 777.216,799.142 751.550,833.000 731.002 C 878.139 703.607,882.379 700.948,885.250 698.229 C 888.399 695.248,888.789 691.974,886.250 689.837 C 885.288 689.027,871.900 681.001,856.500 672.000 C 841.100 663.000,827.269 654.792,825.765 653.760 L 823.029 651.885 822.765 488.192 C 822.504 327.199,822.467 324.446,820.525 321.234 C 818.053 317.146,817.630 316.871,782.500 296.504 C 757.682 282.115,723.402 262.048,659.500 224.502 C 627.409 205.646,614.133 197.880,588.500 182.968 C 573.650 174.329,551.375 161.352,539.000 154.132 C 511.160 137.889,511.664 137.975,496.484 146.811 M540.917 183.863 C 570.198 201.138,642.491 243.443,718.000 287.492 C 777.243 322.051,781.047 324.357,780.675 325.493 C 780.494 326.047,771.830 331.476,761.423 337.557 C 751.015 343.638,721.125 361.140,695.000 376.450 C 668.875 391.759,638.950 409.233,628.500 415.280 C 618.050 421.327,602.075 430.635,593.000 435.965 C 542.800 465.446,515.931 481.074,513.695 482.093 C 511.387 483.145,508.958 481.933,484.340 467.458 C 469.578 458.778,450.975 447.848,443.000 443.168 C 435.025 438.489,419.950 429.618,409.500 423.455 C 399.050 417.292,363.500 396.403,330.500 377.035 C 297.500 357.667,264.313 338.186,256.750 333.745 C 249.188 329.304,243.000 325.340,243.000 324.937 C 243.000 324.534,249.188 320.600,256.750 316.195 C 275.185 305.458,306.317 287.168,323.500 276.980 C 331.200 272.415,339.975 267.247,343.000 265.497 C 356.631 257.608,433.421 212.609,451.000 202.208 C 461.725 195.863,475.675 187.665,482.000 183.992 C 488.325 180.318,497.325 174.993,502.000 172.158 C 506.675 169.323,510.912 167.003,511.417 167.002 C 511.921 167.001,525.196 174.588,540.917 183.863 M495.000 225.256 C 490.875 227.666,472.200 238.781,453.500 249.955 C 434.800 261.130,413.875 273.569,407.000 277.599 C 352.511 309.535,347.503 312.679,347.205 315.133 C 347.017 316.678,347.747 318.314,349.205 319.615 C 353.476 323.429,419.728 361.618,431.540 367.075 C 469.858 384.778,513.222 388.548,548.985 377.287 C 561.514 373.342,581.213 363.095,590.649 355.614 C 611.293 339.250,620.104 320.665,615.584 303.023 C 613.366 294.363,610.041 288.927,601.644 280.231 C 593.653 271.955,583.986 265.104,562.500 252.491 C 554.250 247.648,539.175 238.743,529.000 232.703 C 506.319 219.239,505.575 219.076,495.000 225.256 M530.839 270.750 C 539.912 276.113,549.807 282.749,552.828 285.497 C 569.643 300.795,565.333 319.700,541.675 334.414 C 525.982 344.174,511.569 348.229,492.000 348.389 C 471.414 348.558,461.701 345.558,436.795 331.336 C 416.736 319.883,415.524 319.032,417.126 317.534 C 417.882 316.827,437.175 305.110,460.000 291.496 C 482.825 277.882,503.525 265.456,506.000 263.883 C 508.475 262.310,511.365 261.018,512.422 261.012 C 513.479 261.005,521.766 265.387,530.839 270.750 M260.106 364.352 C 279.023 375.546,301.700 388.880,310.500 393.983 C 319.300 399.087,340.900 411.826,358.500 422.294 C 376.100 432.762,399.725 446.813,411.000 453.518 C 422.275 460.224,444.100 473.169,459.500 482.284 C 474.900 491.399,490.087 500.444,493.250 502.385 L 499.000 505.914 499.000 658.064 C 499.000 798.133,498.871 810.164,497.374 809.590 C 496.480 809.247,487.592 804.091,477.624 798.132 C 467.656 792.173,441.500 776.592,419.500 763.509 C 397.500 750.425,369.150 733.551,356.500 726.011 C 343.850 718.470,312.800 700.030,287.500 685.032 C 262.200 670.033,237.787 655.460,233.250 652.646 L 225.000 647.530 224.905 501.015 C 224.853 420.432,224.740 352.138,224.655 349.251 C 224.570 346.364,224.773 344.002,225.106 344.001 C 225.439 344.001,241.189 353.159,260.106 364.352 M277.750 427.080 C 276.102 428.040,276.000 433.879,276.000 527.327 C 276.000 613.451,276.196 626.835,277.484 628.674 C 278.804 630.558,305.009 646.966,313.940 651.501 C 317.335 653.225,317.406 653.217,319.316 650.874 C 321.172 648.598,321.225 647.195,320.595 616.914 C 320.233 599.542,320.216 584.600,320.558 583.710 C 321.169 582.117,327.263 578.000,329.010 578.000 C 329.502 578.000,331.682 581.712,333.855 586.250 C 336.028 590.788,348.799 616.775,362.237 644.000 L 386.668 693.500 406.520 705.500 C 431.844 720.807,432.751 721.279,435.500 720.589 C 440.875 719.240,441.832 721.443,405.486 651.500 C 358.807 561.673,358.828 561.715,360.760 559.912 C 361.717 559.019,367.675 554.768,374.000 550.466 C 390.575 539.192,420.091 518.560,422.901 516.283 C 427.644 512.439,425.740 510.493,405.257 498.250 C 394.905 492.063,385.633 487.000,384.652 487.000 C 383.671 487.000,381.940 487.497,380.804 488.105 C 378.977 489.083,340.892 515.614,327.381 525.322 C 324.565 527.345,321.744 529.000,321.112 529.000 C 320.265 529.000,319.979 518.715,320.024 489.889 C 320.074 457.423,319.839 450.414,318.644 448.639 C 317.286 446.623,282.347 425.965,280.406 426.030 C 279.908 426.047,278.712 426.519,277.750 427.080 M715.142 460.161 C 720.449 461.751,726.589 467.256,729.531 473.062 C 735.222 484.291,736.253 504.869,731.967 521.631 C 727.676 538.407,720.588 551.505,708.164 565.616 L 699.827 575.084 702.652 578.792 C 704.206 580.831,713.072 591.500,722.355 602.500 C 741.704 625.427,742.255 626.172,741.444 628.285 C 740.854 629.822,707.531 649.787,704.026 650.704 C 701.825 651.279,698.094 647.337,686.793 632.500 C 682.185 626.450,675.749 618.012,672.492 613.749 C 669.234 609.486,665.674 605.714,664.581 605.367 C 662.059 604.566,636.591 617.433,633.883 620.876 C 632.122 623.115,632.000 625.499,632.000 657.699 L 632.000 692.128 629.250 694.714 C 626.323 697.466,597.686 713.829,595.059 714.250 C 593.657 714.475,593.476 704.564,593.263 616.000 C 593.132 561.825,593.359 516.978,593.766 516.339 C 594.174 515.701,601.706 510.937,610.504 505.753 C 647.220 484.118,676.754 467.124,680.500 465.475 C 693.506 459.751,706.910 457.694,715.142 460.161 M672.489 506.820 C 658.696 513.336,635.906 526.304,634.009 528.715 C 632.054 531.201,631.979 532.431,632.234 557.892 C 632.480 582.449,632.635 584.499,634.278 584.815 C 636.126 585.171,654.360 575.175,666.500 567.151 C 681.877 556.986,692.115 542.790,694.967 527.676 C 696.693 518.528,695.689 512.723,691.612 508.274 C 687.053 503.299,680.926 502.834,672.489 506.820 M212.500 753.837 C 205.031 757.405,201.000 763.456,201.000 771.097 C 201.000 782.332,211.651 791.199,222.972 789.389 C 228.264 788.542,234.767 783.801,236.577 779.470 C 238.642 774.527,238.374 766.653,235.980 761.961 C 231.822 753.810,220.648 749.943,212.500 753.837 M278.299 811.960 C 272.182 815.689,270.374 822.821,274.026 828.810 C 278.803 836.646,294.219 837.236,299.439 829.783 C 301.273 827.165,301.489 820.166,299.846 816.562 C 297.217 810.791,284.625 808.102,278.299 811.960 " fill="black"/>
        </svg>
    